<svg width="80" height="80" viewBox="0 0 80 80" fill="none" xmlns="http://www.w3.org/2000/svg">
<g clip-path="url(#clip0_9_16)">
<path d="M78.1567 0.35001C77.0233 -0.216657 75.67 -0.0933236 74.6667 0.666676L69.0333 4.89001C66.7767 3.89334 64.2867 3.33334 61.6667 3.33334C59.0467 3.33334 56.5567 3.89668 54.3 4.89001L48.6667 0.666676C47.6567 -0.0933236 46.3033 -0.216657 45.1767 0.35001C44.0467 0.913343 43.3333 2.07001 43.3333 3.33334V21.6667C43.3333 31.7767 51.5567 40 61.6667 40C71.7767 40 80 31.7767 80 21.6667V3.33334C80 2.07001 79.2867 0.916676 78.1567 0.35001ZM80 76.6633C80 78.5067 78.5067 79.9967 76.6667 79.9967H60V73.33C60 63.6133 53.0367 55.4933 43.84 53.7C41.8367 53.31 40 54.96 40 57.0033V57.0167C40 58.6333 41.1767 59.95 42.76 60.2867C48.79 61.5633 53.3333 66.9267 53.3333 73.3333V80H21.86C11.1133 80 0 73.14 0 61.6667C0 54.55 3.15 49.47 5.93 44.9867C8.11333 41.4667 10 38.4233 10 35C10 31.2167 9.07667 27.6833 2.97667 26.85C1.29667 26.62 0 25.2433 0 23.55C0 21.5733 1.73 19.97 3.69 20.2267C14.88 21.6933 16.6667 29.91 16.6667 35C16.6667 40.3233 14.09 44.48 11.5967 48.5033C9.06333 52.59 6.66667 56.45 6.66667 61.6667C6.66667 67.6367 11.5567 71.17 16.6567 72.5967C16.68 68.2667 17.87 45.9767 39.0533 35.6733C39.5833 35.44 40.0767 35.2367 40.5733 35.03C45.0133 42.01 52.7967 46.6667 61.6667 46.6667C65.88 46.6667 69.8467 45.61 73.3333 43.76V73.3333H76.6667C78.5067 73.3333 80 74.8233 80 76.6633Z" fill="black"/>
</g>
<defs>
<clipPath id="clip0_9_16">
<rect width="80" height="80" fill="white"/>
</clipPath>
</defs>
</svg>
