<svg width="96" height="65" viewBox="0 0 96 65" fill="none" xmlns="http://www.w3.org/2000/svg">
<path d="M26.3184 3.048C24.5264 3.048 23.065 3.90133 21.9344 5.608C20.8037 7.29333 20.2384 9.37333 20.2384 11.848C20.2384 14.728 20.7824 16.8507 21.8704 18.216C22.9797 19.56 24.313 20.232 25.8704 20.232C26.7664 20.232 27.577 20.136 28.3024 19.944V13.064C28.1104 12.6373 27.4384 12.424 26.2864 12.424V11.752H34.3824V12.424C33.2304 12.424 32.5584 12.6373 32.3664 13.064V18.44C32.0037 19.1013 31.2464 19.752 30.0944 20.392C28.9424 21.0107 27.513 21.32 25.8064 21.32C22.9264 21.32 20.537 20.3813 18.6384 18.504C16.7397 16.6267 15.7904 14.4293 15.7904 11.912C15.7904 9.928 16.3237 8.168 17.3904 6.632C18.457 5.07467 19.7797 3.912 21.3584 3.144C22.937 2.35467 24.5797 1.96 26.2864 1.96C26.905 1.96 27.705 2.12 28.6864 2.44C29.6677 2.76 30.2117 2.92 30.3184 2.92C30.5744 2.92 30.7024 2.70667 30.7024 2.28H31.4384L31.7584 6.92H31.0544C30.9264 6.04533 30.329 5.18133 29.2624 4.328C28.1957 3.47467 27.2144 3.048 26.3184 3.048ZM38.8319 9.288C39.3225 9.288 39.5679 9.72533 39.5679 10.6C39.5679 10.9627 39.3865 11.24 39.0239 11.432C38.6612 11.624 38.2772 11.72 37.8719 11.72C37.4452 11.72 37.0612 11.5707 36.7199 11.272C36.3999 10.9733 36.2399 10.5893 36.2399 10.12C36.2399 9.032 36.7732 8.17867 37.8399 7.56C38.9279 6.92 40.3359 6.6 42.0639 6.6C44.0905 6.6 45.6692 7.112 46.7999 8.136C47.9305 9.13867 48.4959 10.4187 48.4959 11.976V18.312C48.4959 18.9947 48.6025 19.496 48.8159 19.816C49.0505 20.136 49.3279 20.296 49.6479 20.296C49.9252 20.296 50.1705 20.2213 50.3839 20.072C50.6185 19.9227 50.7359 19.7413 50.7359 19.528H51.3119C51.3119 20.68 50.1385 21.256 47.7919 21.256C46.7039 21.256 45.8612 20.872 45.2639 20.104C43.9839 20.9147 42.5012 21.32 40.8159 21.32C37.2532 21.32 35.4719 20.0187 35.4719 17.416C35.4719 16.8827 35.6532 16.4027 36.0159 15.976C36.3999 15.5493 36.9759 15.1867 37.7439 14.888C38.5119 14.5893 39.1945 14.3547 39.7919 14.184C40.4105 14.0133 41.2532 13.8213 42.3199 13.608C43.3865 13.3733 44.1119 13.2027 44.4959 13.096C44.4959 11.0907 44.3252 9.704 43.9839 8.936C43.6639 8.14667 42.9172 7.752 41.7439 7.752C41.0399 7.752 40.3999 7.90133 39.8239 8.2C39.2692 8.47733 38.9385 8.84 38.8319 9.288ZM44.8159 19.336C44.6025 18.76 44.4959 18.12 44.4959 17.416V13.8C42.6825 14.3547 41.4879 14.8133 40.9119 15.176C40.0159 15.7733 39.5679 16.5413 39.5679 17.48C39.5679 18.4613 39.7705 19.1653 40.1759 19.592C40.6025 20.0187 41.0825 20.232 41.6159 20.232C42.5545 20.232 43.6212 19.9333 44.8159 19.336ZM57.4216 2.28V6.92H60.1736V7.88H57.4216V18.056C57.4216 18.7173 57.539 19.2293 57.7736 19.592C58.0083 19.9333 58.4456 20.104 59.0856 20.104C59.4696 20.104 59.8536 19.9227 60.2376 19.56C60.643 19.176 60.9203 18.6533 61.0696 17.992L61.8376 18.376C61.3896 20.3387 60.1096 21.32 57.9976 21.32C56.3336 21.32 55.1176 20.9467 54.3496 20.2C53.603 19.432 53.2296 18.184 53.2296 16.456V7.88H50.9896V6.92C52.2483 6.92 53.347 6.45067 54.2856 5.512C55.2243 4.552 55.6936 3.47467 55.6936 2.28H57.4216ZM62.8461 21V20.328C63.9981 20.328 64.6701 20.1147 64.8621 19.688V8.84C63.7528 8.75467 63.0808 8.712 62.8461 8.712V7.976C63.2515 7.976 64.2328 7.752 65.7901 7.304C67.3475 6.83467 68.3715 6.6 68.8621 6.6V19.688C69.0541 20.1147 69.7261 20.328 70.8781 20.328V21H62.8461ZM66.7821 4.552C66.2701 4.552 65.7475 4.37067 65.2141 4.008C64.7021 3.624 64.4461 3.176 64.4461 2.664C64.4461 2.216 64.6808 1.8 65.1501 1.416C65.6408 1.032 66.1528 0.839998 66.6861 0.839998C67.1981 0.839998 67.7101 1.032 68.2221 1.416C68.7555 1.77867 69.0221 2.22667 69.0221 2.76C69.0221 3.208 68.7768 3.624 68.2861 4.008C67.8168 4.37067 67.3155 4.552 66.7821 4.552ZM71.7761 21V20.328C72.9281 20.328 73.6001 20.1147 73.7921 19.688V3.08C72.6401 2.99467 71.9681 2.952 71.7761 2.952V2.216C72.1815 2.216 73.1628 1.992 74.7201 1.544C76.2775 1.07467 77.3015 0.839998 77.7921 0.839998V19.688C77.9841 20.1147 78.6561 20.328 79.8081 20.328V21H71.7761ZM0.4645 58V57.328C1.6165 57.328 2.2885 57.1147 2.4805 56.688V40.592C2.2885 40.1653 1.6165 39.952 0.4645 39.952V39.28H8.1125C10.7792 39.28 12.7845 39.7173 14.1285 40.592C15.4938 41.4667 16.1765 42.5013 16.1765 43.696C16.1765 45.9573 14.9605 47.4613 12.5285 48.208C14.1072 48.592 15.3445 49.1893 16.2405 50C17.1365 50.8107 17.5845 51.6533 17.5845 52.528C17.5845 54.1493 16.9338 55.472 15.6325 56.496C14.3525 57.4987 12.4432 58 9.9045 58H0.4645ZM6.5445 40.368V47.792H8.0165C9.5525 47.792 10.5765 47.4613 11.0885 46.8C11.6005 46.1387 11.8565 45.1147 11.8565 43.728C11.8565 41.488 10.2352 40.368 6.9925 40.368H6.5445ZM6.5445 48.72V56.912H8.7845C11.7712 56.912 13.2645 55.4613 13.2645 52.56C13.2645 51.5573 12.8912 50.672 12.1445 49.904C11.3978 49.1147 10.1498 48.72 8.4005 48.72H6.5445ZM23.6208 50.288C23.6634 52.144 24.0794 53.744 24.8688 55.088C25.6794 56.432 26.7034 57.104 27.9408 57.104C29.7968 57.104 31.2901 56.4 32.4208 54.992L33.1888 55.376C32.5701 56.4 31.7594 57.1467 30.7568 57.616C29.7754 58.0853 28.4741 58.32 26.8528 58.32C26.0208 58.32 25.2101 58.2027 24.4208 57.968C23.6314 57.712 22.8421 57.3067 22.0528 56.752C21.2848 56.176 20.6554 55.3333 20.1648 54.224C19.6954 53.1147 19.4608 51.792 19.4608 50.256C19.4608 48.4 20.1114 46.832 21.4128 45.552C22.7354 44.2507 24.4421 43.6 26.5328 43.6C28.8154 43.6 30.5861 44.2507 31.8448 45.552C33.1034 46.832 33.7328 48.4107 33.7328 50.288H23.6208ZM23.6528 49.296H29.4768C29.3488 47.7813 29.0821 46.6187 28.6768 45.808C28.2928 44.976 27.6634 44.56 26.7888 44.56C26.0208 44.56 25.3274 44.9547 24.7088 45.744C24.1114 46.512 23.7594 47.696 23.6528 49.296ZM35.268 58V57.328C36.42 57.328 37.092 57.1147 37.284 56.688V45.84C36.132 45.7547 35.46 45.712 35.268 45.712V44.976C35.6733 44.976 36.6547 44.752 38.212 44.304C39.7693 43.8347 40.7933 43.6 41.284 43.6V44.944C42.3507 44.048 43.524 43.6 44.804 43.6C46.852 43.6 48.4413 43.984 49.572 44.752C50.7027 45.4987 51.268 46.6293 51.268 48.144V56.688C51.46 57.1147 52.132 57.328 53.284 57.328V58H45.252V57.328C46.404 57.328 47.076 57.1147 47.268 56.688V47.92C47.268 46.96 47.044 46.1813 46.596 45.584C46.1693 44.9867 45.508 44.688 44.612 44.688C43.2893 44.688 42.18 45.1147 41.284 45.968V56.688C41.476 57.1147 42.148 57.328 43.3 57.328V58H35.268ZM68.8288 43.6V57.072C68.8288 59.2053 68.1994 60.9547 66.9408 62.32C65.7034 63.7067 64.0501 64.4 61.9808 64.4C60.0181 64.4 58.4608 64.144 57.3088 63.632C56.1568 63.12 55.5807 62.4373 55.5807 61.584C55.5807 60.2187 56.1568 59.536 57.3088 59.536C57.7354 59.536 58.0874 59.6853 58.3648 59.984C58.6421 60.2827 58.7808 60.6347 58.7808 61.04C58.7808 61.7227 58.5141 62.1707 57.9808 62.384C58.5568 62.96 59.7834 63.248 61.6608 63.248C62.6421 63.248 63.3888 62.8213 63.9008 61.968C64.4128 61.136 64.7114 59.6853 64.7968 57.616C63.9008 58.0853 62.8021 58.32 61.5008 58.32C60.7968 58.32 60.0714 58.2133 59.3248 58C58.5994 57.7653 57.8528 57.392 57.0848 56.88C56.3168 56.368 55.6874 55.6107 55.1968 54.608C54.7274 53.584 54.4928 52.3893 54.4928 51.024C54.4928 48.656 55.2288 46.832 56.7008 45.552C58.1728 44.2507 60.0074 43.6 62.2048 43.6C63.5701 43.6 64.7221 43.92 65.6608 44.56C67.2608 43.92 68.3168 43.6 68.8288 43.6ZM64.8288 56.592V55.92V45.136C64.1674 44.8373 63.3568 44.688 62.3968 44.688C59.9008 44.688 58.6528 46.8 58.6528 51.024C58.6528 52.2613 58.7594 53.328 58.9728 54.224C59.2074 55.0987 59.4954 55.7387 59.8368 56.144C60.1994 56.5493 60.5408 56.8373 60.8608 57.008C61.1808 57.1573 61.5008 57.232 61.8208 57.232C62.9728 57.232 63.9754 57.0187 64.8288 56.592ZM74.8163 46.288C75.3069 46.288 75.5523 46.7253 75.5523 47.6C75.5523 47.9627 75.3709 48.24 75.0083 48.432C74.6456 48.624 74.2616 48.72 73.8563 48.72C73.4296 48.72 73.0456 48.5707 72.7043 48.272C72.3843 47.9733 72.2243 47.5893 72.2243 47.12C72.2243 46.032 72.7576 45.1787 73.8243 44.56C74.9123 43.92 76.3203 43.6 78.0483 43.6C80.0749 43.6 81.6536 44.112 82.7843 45.136C83.9149 46.1387 84.4803 47.4187 84.4803 48.976V55.312C84.4803 55.9947 84.5869 56.496 84.8003 56.816C85.0349 57.136 85.3123 57.296 85.6323 57.296C85.9096 57.296 86.1549 57.2213 86.3683 57.072C86.6029 56.9227 86.7203 56.7413 86.7203 56.528H87.2963C87.2963 57.68 86.1229 58.256 83.7763 58.256C82.6883 58.256 81.8456 57.872 81.2483 57.104C79.9683 57.9147 78.4856 58.32 76.8003 58.32C73.2376 58.32 71.4563 57.0187 71.4563 54.416C71.4563 53.8827 71.6376 53.4027 72.0003 52.976C72.3843 52.5493 72.9603 52.1867 73.7283 51.888C74.4962 51.5893 75.1789 51.3547 75.7763 51.184C76.3949 51.0133 77.2376 50.8213 78.3043 50.608C79.3709 50.3733 80.0963 50.2027 80.4803 50.096C80.4803 48.0907 80.3096 46.704 79.9683 45.936C79.6483 45.1467 78.9016 44.752 77.7283 44.752C77.0243 44.752 76.3843 44.9013 75.8083 45.2C75.2536 45.4773 74.9229 45.84 74.8163 46.288ZM80.8003 56.336C80.5869 55.76 80.4803 55.12 80.4803 54.416V50.8C78.6669 51.3547 77.4723 51.8133 76.8963 52.176C76.0003 52.7733 75.5523 53.5413 75.5523 54.48C75.5523 55.4613 75.7549 56.1653 76.1603 56.592C76.5869 57.0187 77.0669 57.232 77.6003 57.232C78.5389 57.232 79.6056 56.9333 80.8003 56.336ZM87.198 58V57.328C88.35 57.328 89.022 57.1147 89.214 56.688V40.08C88.062 39.9947 87.39 39.952 87.198 39.952V39.216C87.6033 39.216 88.5847 38.992 90.142 38.544C91.6993 38.0747 92.7233 37.84 93.214 37.84V56.688C93.406 57.1147 94.078 57.328 95.23 57.328V58H87.198Z" fill="#F3F3F3"/>
</svg>
